HIERARCHY
ROOT Hips
{
  OFFSET 265.287 66.7526 -254.649
  CHANNELS 6 Xposition Yposition Zposition Zrotation Xrotation Yrotation
  JOINT LeftUpLeg
  {
    OFFSET 8.64259 1.95398 -2.38835
    CHANNELS 3 Zrotation Xrotation Yrotation
    JOINT LeftLeg
    {
      OFFSET 43.7702 0 0
      CHANNELS 3 Zrotation Xrotation Yrotation
      JOINT LeftFoot
      {
        OFFSET 40.6238 0 0
        CHANNELS 3 Zrotation Xrotation Yrotation
        JOINT LeftToeBase
        {
          OFFSET 12.7242 0 0
          CHANNELS 3 Zrotation Xrotation Yrotation
          End Site
          {
            OFFSET 0 0 0
          }
        }
      }
    }
  }
  JOINT RightUpLeg
  {
    OFFSET -8.2249 1.95398 -2.59336
    CHANNELS 3 Zrotation Xrotation Yrotation
    JOINT RightLeg
    {
      OFFSET 43.5653 0 0
      CHANNELS 3 Zrotation Xrotation Yrotation
      JOINT RightFoot
      {
        OFFSET 40.6238 0 0
        CHANNELS 3 Zrotation Xrotation Yrotation
        JOINT RightToeBase
        {
          OFFSET 12.7242 0 0
          CHANNELS 3 Zrotation Xrotation Yrotation
          End Site
          {
            OFFSET 0 0 0
          }
        }
      }
    }
  }
  JOINT Spine
  {
    OFFSET 0.165834 0.87714 6.61349
    CHANNELS 3 Zrotation Xrotation Yrotation
    JOINT Spine1
    {
      OFFSET 7.38963 1.71661e-005 0
      CHANNELS 3 Zrotation Xrotation Yrotation
      JOINT Spine2
      {
        OFFSET 11.9445 1.14441e-005 0
        CHANNELS 3 Zrotation Xrotation Yrotation
        JOINT Spine3
        {
          OFFSET 14.7254 4.19617e-005 0
          CHANNELS 3 Zrotation Xrotation Yrotation
          JOINT Spine4
          {
            OFFSET 10.9679 0 0
            CHANNELS 3 Zrotation Xrotation Yrotation
            JOINT RightShoulder
            {
              OFFSET 2.46616 -1.6653 3.69651
              CHANNELS 3 Zrotation Xrotation Yrotation
              JOINT RightArm
              {
                OFFSET 13.0012 0 0
                CHANNELS 3 Zrotation Xrotation Yrotation
                JOINT RightForeArm
                {
                  OFFSET 28.7848 1.52588e-005 0
                  CHANNELS 3 Zrotation Xrotation Yrotation
                  JOINT RightHand
                  {
                    OFFSET 26.5688 1.52588e-005 0
                    CHANNELS 3 Zrotation Xrotation Yrotation
                    End Site
                    {
                      OFFSET 0 0 0
                    }
                  }
                }
              }
            }
            JOINT LeftShoulder
            {
              OFFSET 2.38034 -1.29275 -3.7523
              CHANNELS 3 Zrotation Xrotation Yrotation
              JOINT LeftArm
              {
                OFFSET 16.3182 6.10351e-005 0
                CHANNELS 3 Zrotation Xrotation Yrotation
                JOINT LeftForeArm
                {
                  OFFSET 27.0901 0 0
                  CHANNELS 3 Zrotation Xrotation Yrotation
                  JOINT LeftHand
                  {
                    OFFSET 24.5451 1.52588e-005 0
                    CHANNELS 3 Zrotation Xrotation Yrotation
                    End Site
                    {
                      OFFSET 0 0 0
                    }
                  }
                }
              }
            }
            JOINT Neck
            {
              OFFSET 5.0226 -0.0266342 0
              CHANNELS 3 Zrotation Xrotation Yrotation
              JOINT Head
              {
                OFFSET 6.69364 2.86102e-005 0
                CHANNELS 3 Zrotation Xrotation Yrotation
                End Site
                {
                  OFFSET 0 0 0
                }
              }
            }
          }
        }
      }
    }
  }
}
MOTION
Frames:	17
Frame Time:	0.0416667
-302.113 94.8878 25.7457 92.5534 1.68917 90.6039 -174.239 -0.551068 89.807 -8.83545 13.5791 2.71614 59.3099 1.88849 11.0681 36.3326 -2.36387 0.628693 175.245 3.6432 88.4518 -16.1615 7.16852 -0.364105 60.8943 4.04276 14.9735 30.1607 -0.463505 2.5738 -0.26349 7.22367 -90.1797 12.4258 -0.608962 -0.289184 0.754988 -0.621075 -0.262108 -21.7807 -0.493896 -0.45884 -1.76807 -0.493902 -0.458835 102.901 -50.1172 -81.0204 31.1869 -6.71447 -5.48906 -4.21975 -27.8376 -20.2346 -17.7216 -1.55711 5.05694 -80.9695 -48.3207 92.026 -32.496 12.2693 -13.296 12.5063 28.1903 -19.4321 10.7797 0.491024 0.671582 -4.57944 1.64637 -13.216 -5.85758 2.48199 22.556 
-302.092 94.8779 25.8081 92.1999 1.18305 90.896 -173.908 -0.0895598 90.1412 -9.07986 13.5719 2.6086 59.4568 1.88732 11.0532 36.4344 -2.40305 0.834239 175.621 3.76248 88.8674 -15.5358 7.12339 -0.519221 60.6417 3.97558 15.0474 30.1756 -0.439317 2.32122 -0.204005 7.17287 -90.2245 12.5271 -0.512192 -0.38927 0.856245 -0.528827 -0.36636 -21.6789 -0.371515 -0.525204 -1.66628 -0.371515 -0.525208 102.836 -49.9557 -81.1205 31.4182 -6.78224 -5.35161 -3.15958 -26.0513 -18.921 -17.3156 -1.21332 2.98183 -81.1484 -48.6652 91.7706 -31.8502 12.953 -13.3463 11.5628 27.3406 -18.9354 11.6517 0.929029 3.91884 5.78018 1.86177 -9.18774 -20.7135 1.51806 13.2357 
-302.063 94.8819 25.8432 92.2531 0.945084 90.8948 -173.855 -0.370474 90.1788 -8.77908 14.0625 2.58187 59.3264 1.92142 11.4792 36.5373 -2.45148 1.28334 175.669 3.86294 88.8895 -15.8731 7.06946 -0.57848 60.6453 4.12996 15.4018 29.9714 -0.430178 2.47605 -0.197849 7.18278 -90.2302 12.5074 -0.50261 -0.401711 0.836439 -0.519798 -0.379217 -21.6987 -0.358642 -0.534194 -1.68603 -0.358627 -0.534197 102.686 -49.8058 -81.3523 31.4684 -6.7766 -5.4229 -3.13962 -26.1664 -18.8725 -17.4778 -1.25498 3.17951 -80.9177 -48.8084 92.1348 -31.7344 12.9867 -13.4069 11.5193 27.3424 -18.9173 11.8079 0.948297 3.96773 4.15043 2.05365 -9.3839 -18.5762 1.79328 14.2176 
-302.013 94.8957 25.8785 92.1874 0.923885 90.8718 -173.821 -0.489704 90.2091 -8.5077 14.5203 2.59141 59.1989 1.88388 11.5826 36.5573 -2.47498 1.72262 175.697 3.83874 88.9146 -15.7445 7.27173 -0.603638 60.7549 4.03218 15.3252 29.8306 -0.432035 2.66177 -0.184651 7.17377 -90.2317 12.5254 -0.477108 -0.407472 0.854459 -0.494599 -0.386082 -21.6806 -0.332597 -0.532022 -1.66794 -0.332595 -0.532025 102.878 -49.7564 -81.052 31.4426 -6.76308 -5.4126 -3.15911 -26.0448 -18.9651 -17.513 -1.25851 3.18557 -80.8172 -48.7575 92.287 -31.6332 13.2882 -13.5266 11.3177 27.3127 -18.8143 11.7307 0.941465 3.95872 3.3184 2.42595 -8.91733 -16.9421 2.25147 13.9682 
-302.027 94.8772 25.8429 92.4201 1.50642 90.5904 -174.286 -0.85974 89.8093 -8.28662 14.8562 2.82361 59.0759 1.91659 11.8662 36.5726 -2.48855 1.95749 175.281 3.62581 88.4729 -15.859 7.36428 -0.376536 61.3819 3.8381 15.1769 29.0441 -0.357024 2.84253 -0.304157 7.24072 -90.2551 12.3911 -0.725544 -0.426698 0.720248 -0.743591 -0.39436 -21.8154 -0.563776 -0.625028 -1.80278 -0.56375 -0.625025 102.627 -48.3561 -81.4297 32.5391 -6.72728 -5.77233 -3.52189 -26.8771 -19.0073 -17.4239 -1.26132 3.2489 -80.1522 -49.5407 93.3453 -30.9668 13.6691 -13.9108 11.1653 27.0491 -18.9827 11.4601 0.891831 3.71524 4.84553 2.7856 -6.8434 -18.3612 2.34793 12.6052 
-302.012 94.8701 25.9451 92.1184 1.07782 90.7943 -173.984 -0.253358 90.09 -8.74898 13.8228 2.65423 59.177 1.83746 11.3933 36.7429 -2.50374 1.06006 175.384 3.89398 88.7115 -15.7178 6.93979 -0.298113 60.7179 4.09317 15.2484 30.0403 -0.402229 2.05373 -0.237401 7.21614 -90.2616 12.4403 -0.596079 -0.454166 0.76941 -0.615467 -0.427501 -21.7658 -0.432059 -0.61232 -1.75312 -0.432029 -0.612317 102.55 -48.7029 -81.5551 32.2468 -6.82628 -5.68329 -3.57821 -26.6107 -19.1186 -16.7975 -1.19011 3.07751 -80.3221 -49.3501 93.0772 -30.9125 13.8422 -14.0471 11.1789 27.468 -18.961 12.0488 1.04891 4.61735 4.88356 2.71692 -7.16024 -18.235 2.34111 12.7042 
-302.004 94.8859 25.988 92.0386 1.21558 90.7878 -173.984 0.124636 90.025 -9.15001 12.8819 2.63913 59.4082 1.78623 10.4784 36.484 -2.41103 0.653094 175.303 3.9928 88.6996 -15.8679 6.68711 -0.190998 59.9924 4.60513 16.2511 31.5234 -0.380004 -0.172271 -0.245603 7.21818 -90.2332 12.4365 -0.598912 -0.397213 0.765625 -0.615813 -0.370472 -21.7697 -0.451857 -0.558849 -1.75709 -0.451831 -0.558845 102.722 -49.0436 -81.2873 32.1331 -6.85224 -5.80771 -3.51388 -26.5978 -19.1721 -16.89 -1.21805 3.22467 -80.7429 -48.8717 92.4065 -31.1511 13.7153 -13.7471 11.523 27.7197 -19.2663 10.8259 0.870667 3.91826 5.34224 2.62658 -8.13611 -18.9798 2.28594 13.3742 
-301.998 94.8996 26.0301 91.9871 1.07679 90.8904 -173.868 0.219115 90.3067 -9.28687 12.4601 2.61848 59.4369 1.71453 10.1336 36.5943 -2.42544 0.186225 175.282 3.9836 88.812 -15.7526 6.29169 -0.0903406 60.0662 4.38758 15.4349 31.3391 -0.37581 0.07693 -0.247331 7.22948 -90.2535 12.4136 -0.611891 -0.436406 0.742769 -0.630515 -0.409056 -21.7925 -0.452447 -0.600123 -1.77985 -0.45244 -0.600132 102.564 -49.0713 -81.5373 32.0254 -6.84893 -5.70895 -3.68048 -26.6663 -19.4335 -16.7568 -1.23062 3.3827 -80.4283 -49.0536 92.9008 -30.7691 14.3646 -13.9689 10.612 26.4723 -18.6827 11.7482 0.862572 3.32172 4.81163 2.65324 -7.79173 -17.8707 2.36549 13.1967 
-302.027 94.9275 25.9996 92.0674 1.51997 90.6665 -174.129 -0.0705787 89.9948 -8.78199 12.8522 2.70567 59.1728 1.70803 10.2937 36.4063 -2.38036 0.48779 174.964 3.81685 88.4872 -15.5795 6.31418 0.0802355 60.8014 3.91356 14.1417 29.7603 -0.477498 3.17097 -0.239269 7.28501 -90.1643 12.3033 -0.553349 -0.265528 0.632396 -0.564469 -0.240921 -21.9032 -0.44799 -0.419557 -1.89056 -0.447951 -0.419552 103.058 -49.9484 -80.7736 31.7611 -6.83644 -5.6848 -3.79648 -26.1651 -19.8215 -16.7383 -1.21975 3.3153 -81.5014 -47.4616 91.1432 -32.282 13.7283 -13.665 11.6042 27.3352 -19.2302 11.8584 1.03433 4.6229 5.71504 1.82658 -10.537 -18.2756 1.80131 15.3501 
-302.142 94.9212 26.0671 91.6207 1.74993 90.6611 -174.204 -0.00114725 89.946 -8.2795 13.856 2.74677 58.8854 1.7084 10.8418 36.3473 -2.37487 0.786579 175.048 4.68583 88.6082 -16.2832 6.4242 0.139381 60.3568 4.33842 14.8991 30.883 -0.397412 0.768454 -0.342309 7.24937 -90.1752 12.3744 -0.763373 -0.263013 0.703663 -0.774223 -0.229158 -21.8327 -0.649055 -0.480287 -1.82002 -0.64904 -0.480293 102.619 -50.4501 -81.4626 31.2208 -6.74557 -5.48411 -3.9139 -26.3676 -19.9546 -16.6833 -1.26895 3.70418 -81.4241 -48.5227 91.3355 -30.6008 14.5766 -13.3777 10.0586 25.3594 -18.4748 12.3115 1.0155 3.93533 5.93564 1.67498 -10.9035 -18.6217 1.59378 16.0783 
-302.432 94.8963 26.4045 90.4947 1.46613 90.4801 -174.42 1.45308 89.7848 -7.94925 13.2494 2.74144 58.4603 1.4317 10.3622 36.3704 -2.37392 0.596171 175.24 7.18179 88.656 -18.3536 5.22745 0.158783 58.8723 5.34356 16.8334 34.2654 -0.413382 -5.35582 -0.370184 7.22861 -90.1945 12.4156 -0.827922 -0.294081 0.744934 -0.840104 -0.257363 -21.7916 -0.701292 -0.529322 -1.77892 -0.701284 -0.529329 102.852 -49.6809 -81.0913 31.8925 -6.55804 -5.6607 -4.79323 -26.9987 -20.629 -15.3725 -1.11367 3.32943 -80.9924 -48.8091 92.021 -30.0878 15.8652 -13.8423 8.23998 23.1945 -17.6463 6.86811 0.298085 0.638787 7.46902 2.97948 -8.63542 -17.2686 2.97035 14.1863 
-302.719 94.8569 26.9215 89.5397 1.36455 90.5729 -174.212 2.66285 90.1894 -8.07261 13.488 2.66466 58.1297 1.22104 10.4616 36.8313 -2.51626 0.676071 175.228 8.44967 89.1996 -18.7369 4.10238 0.535556 61.0032 3.41985 11.454 30.9935 -0.506488 1.38555 -0.315659 7.31993 -90.1159 12.234 -0.682236 -0.154722 0.563246 -0.688376 -0.124552 -21.9731 -0.604197 -0.352617 -1.9604 -0.604185 -0.352613 103.333 -51.2762 -80.3746 31.3842 -6.49545 -5.77893 -4.10671 -24.6603 -20.87 -16.9177 -1.13923 2.68392 -81.976 -47.0549 90.3672 -31.7776 13.5964 -14.915 11.2349 28.8929 -18.1066 4.37027 0.166381 -0.0950522 10.4877 2.11892 -10.457 -19.5749 2.536 13.8895 
-302.797 94.7748 27.5264 89.2184 2.09888 90.5115 -174.277 3.59139 90.3885 -8.94037 13.5357 2.83543 58.3544 1.10483 9.62767 36.9044 -2.52853 0.408037 174.923 7.87333 89.6011 -17.338 4.16397 1.1012 63.4264 0.97679 6.60327 28.2366 -0.655592 6.17681 -0.406329 7.46771 -90.1075 11.9383 -0.858524 -0.121726 0.267585 -0.86305 -0.0838293 -22.2695 -0.78225 -0.374131 -2.25683 -0.782263 -0.374146 103.329 -51.2293 -80.3792 31.6479 -6.11962 -5.67441 -5.71445 -24.8304 -21.8758 -12.7169 -0.696385 1.21604 -82.3025 -47.1889 89.868 -31.0857 12.9676 -15.9139 11.991 30.335 -18.444 2.51288 0.106245 0.240303 9.04298 1.51405 -12.7788 -16.5107 2.15796 18.5196 
-302.374 94.7475 28.1419 88.0316 1.74046 90.1771 -174.368 3.71393 90.2592 -7.33592 13.4126 2.782 57.8279 1.11938 9.86078 37.0231 -2.58536 0.999018 175.243 9.56891 89.4537 -18.9272 4.99643 0.779288 63.8206 2.03235 10.6512 31.2046 -0.741508 4.2206 -0.374889 7.46119 -90.0984 11.9513 -0.791748 -0.110508 0.280561 -0.795824 -0.0755648 -22.2562 -0.721929 -0.343369 -2.24358 -0.721881 -0.343354 102.747 -51.7566 -81.2799 30.8216 -5.4532 -4.38588 -6.16318 -24.9234 -22.6172 -12.8919 -0.87174 2.74724 -82.2933 -47.0493 89.8706 -30.7652 13.847 -17.337 11.3286 30.8981 -17.6774 4.03832 0.215151 1.09954 7.91616 1.9064 -12.7157 -15.0425 2.60885 18.9561 
-301.277 94.6282 28.9207 87.3837 0.859905 90.1695 -174.071 3.97099 90.8206 -8.07442 12.9597 2.85359 58.4721 1.46669 10.3578 37.8702 -2.84752 1.33843 175.417 9.3668 90.1048 -18.6574 4.77367 0.928316 64.7049 1.50469 10.8989 32.7131 -0.821043 3.17799 -0.389635 7.49584 -90.2195 11.8817 -0.878104 -0.343973 0.21106 -0.892374 -0.304996 -22.3255 -0.734124 -0.591981 -2.3129 -0.734123 -0.591987 102.632 -50.1118 -81.4397 31.3793 -4.96372 -4.66743 -5.2231 -25.8653 -20.4003 -14.226 -1.01901 3.2065 -81.7954 -48.28 90.7422 -29.9953 13.9031 -17.464 11.2325 28.4221 -18.5575 3.57317 0.173641 0.66577 11.5892 1.6606 -12.8581 -22.8099 1.01056 21.3613 
-299.588 94.5024 29.8213 87.719 -0.194449 89.7155 -174.398 2.30285 90.282 -7.84185 13.1286 3.00506 58.4297 2.5859 14.461 40.9837 -3.77663 1.45671 175.37 9.22881 89.7662 -20.8836 3.42106 0.671447 64.7239 2.26754 12.0777 33.7359 -0.849705 2.02794 -0.430897 7.566 -90.2684 11.7401 -0.983001 -0.431562 0.0694276 -1.00105 -0.387881 -22.4673 -0.807851 -0.707053 -2.45469 -0.807839 -0.707053 101.953 -49.0241 -82.5 31.6819 -3.47541 -3.6943 -4.95364 -26.4898 -18.7075 -14.7031 -1.03008 3.01263 -81.3374 -49.3999 91.5273 -29.7969 13.4154 -15.79 12.3872 25.5898 -21.5151 3.2831 0.138972 0.227789 14.5532 -0.919106 -14.9586 -30.6805 -3.38208 26.5878 
-297.616 93.8251 30.7929 88.5441 -1.24358 88.9157 -175.852 6.20033 90.3698 -19.7851 10.1528 2.64592 59.645 3.90837 12.8905 46.3742 -5.05783 6.89361 174.589 8.10937 89.4616 -23.1516 1.71812 1.11413 68.9125 -0.265947 8.20579 30.2428 -0.968626 7.4942 -0.343938 7.7227 -90.2189 11.4273 -0.786379 -0.356364 -0.243448 -0.801349 -0.32141 -22.7796 -0.642953 -0.57624 -2.76694 -0.642949 -0.576245 102.206 -48.6998 -82.1003 31.9055 -3.0858 -3.31236 -4.7946 -26.9042 -18.1348 -14.5831 -1.09556 3.61499 -80.8635 -49.305 92.2464 -30.0154 12.6722 -13.2643 12.6176 19.7656 -25.3523 5.1236 0.060345 -2.06709 8.8506 2.64107 -11.0976 -19.5654 2.08728 20.5167 
